<?xml version="1.0" encoding="UTF-8" standalone="no"?>
<!DOCTYPE svg PUBLIC "-//W3C//DTD SVG 1.1//EN" "http://www.w3.org/Graphics/SVG/1.1/DTD/svg11.dtd">
<svg width="100%" height="100%" viewBox="0 0 1912 462" version="1.1" xmlns="http://www.w3.org/2000/svg" xmlns:xlink="http://www.w3.org/1999/xlink" xml:space="preserve" xmlns:serif="http://www.serif.com/" style="fill-rule:evenodd;clip-rule:evenodd;stroke-linejoin:round;stroke-miterlimit:2;">
    <g transform="matrix(1,0,0,1,-2727.29,-2622.34)">
        <g id="OPSd-dark-mode-horizontal" serif:id="OPSd dark mode horizontal" transform="matrix(0.372421,0,0,0.372421,1401.33,1925.91)">
            <g transform="matrix(0.905565,0,0,0.729286,4749,668.639)">
                <path d="M845.838,2089.19C907.466,2089.19 959.972,2095.07 1003.36,2106.83C1046.74,2118.59 1082.01,2137.24 1109.18,2162.78C1136.34,2188.32 1156.01,2221.37 1168.17,2261.91C1180.33,2302.45 1186.41,2351.92 1186.41,2410.3L1186.41,2619.51C1186.41,2677.9 1180.33,2727.57 1168.17,2768.52C1156.01,2809.47 1136.34,2842.71 1109.18,2868.26C1082.01,2893.8 1046.74,2912.25 1003.36,2923.6C959.972,2934.95 907.466,2940.63 845.838,2940.63L469.989,2940.63C408.361,2940.63 356.058,2934.95 313.081,2923.6C270.103,2912.25 235.032,2893.8 207.867,2868.26C180.702,2842.71 160.835,2809.47 148.266,2768.52C135.698,2727.57 129.413,2677.9 129.413,2619.51L129.413,2410.3C129.413,2351.92 135.698,2302.45 148.266,2261.91C160.835,2221.37 180.702,2188.32 207.867,2162.78C235.032,2137.24 270.103,2118.59 313.081,2106.83C356.058,2095.07 408.361,2089.19 469.989,2089.19L845.838,2089.19ZM315.513,2606.14C315.513,2637.76 318.149,2664.32 323.42,2685.81C328.69,2707.29 337.408,2724.32 349.571,2736.89C361.734,2749.46 378.155,2758.38 398.833,2763.65C419.511,2768.92 445.662,2771.56 477.287,2771.56L838.54,2771.56C870.165,2771.56 896.317,2768.92 916.994,2763.65C937.672,2758.38 954.093,2749.46 966.256,2736.89C978.42,2724.32 987.137,2707.29 992.408,2685.81C997.678,2664.32 1000.31,2637.76 1000.31,2606.14L1000.31,2423.68C1000.31,2392.06 997.678,2365.5 992.408,2344.01C987.137,2322.53 978.42,2305.5 966.256,2292.93C954.093,2280.36 937.672,2271.44 916.994,2266.17C896.317,2260.9 870.165,2258.26 838.54,2258.26L477.287,2258.26C445.662,2258.26 419.511,2260.9 398.833,2266.17C378.155,2271.44 361.734,2280.36 349.571,2292.93C337.408,2305.5 328.69,2322.53 323.42,2344.01C318.149,2365.5 315.513,2392.06 315.513,2423.68L315.513,2606.14Z" style="fill:rgb(225,226,227);fill-rule:nonzero;"/>
                <g transform="matrix(1.95913,0,0,2.43268,-42.8977,-2632.61)">
                    <path d="M799.454,2015.98L799.454,2279.98C799.454,2287.32 794.902,2290.98 785.796,2290.98L718.743,2290.98C709.223,2290.98 704.463,2287.32 704.463,2279.98L704.463,1955.98C704.463,1945.98 710.672,1940.98 723.089,1940.98L1056.49,1940.98C1104.09,1940.98 1138.24,1949.65 1158.93,1966.98C1179.63,1984.32 1189.97,2009.98 1189.97,2043.98L1189.97,2080.98C1189.97,2114.98 1179.63,2140.65 1158.93,2157.98C1138.24,2175.32 1104.09,2183.98 1056.49,2183.98L865.354,2183.98C861.34,2183.98 857.49,2182.39 854.652,2179.55C851.813,2176.71 850.219,2172.86 850.219,2168.85C850.219,2158.14 850.219,2143.83 850.219,2133.12C850.219,2129.1 851.813,2125.25 854.652,2122.42C857.49,2119.58 861.34,2117.98 865.354,2117.98C909.867,2117.98 1037.24,2117.98 1037.24,2117.98C1058.35,2117.98 1073.25,2114.32 1081.94,2106.98C1090.64,2099.65 1094.98,2088.48 1094.98,2073.48L1094.98,2054.48C1094.98,2039.48 1090.64,2028.32 1081.94,2020.98C1073.25,2013.65 1058.35,2009.98 1037.24,2009.98L807.526,2009.98C802.145,2009.98 799.454,2011.98 799.454,2015.98Z" style="fill:rgb(225,226,227);fill-rule:nonzero;"/>
                </g>
                <path d="M3254.2,2089.19C3272.03,2089.19 3280.95,2098.11 3280.95,2115.95L3280.95,2231.5C3280.95,2249.34 3272.03,2258.26 3254.2,2258.26L2644.81,2258.26C2621.29,2258.26 2604.67,2264.34 2594.94,2276.51C2585.21,2288.67 2580.34,2305.29 2580.34,2326.38L2580.34,2367.73C2580.34,2413.14 2601.43,2435.85 2643.59,2435.85L3099.72,2435.85C3170.27,2435.85 3223.38,2453.89 3259.06,2489.97C3294.74,2526.06 3312.58,2577.75 3312.58,2645.06L3312.58,2742.37C3312.58,2801.56 3295.14,2849.4 3260.28,2885.89C3225.41,2922.38 3171.08,2940.63 3097.29,2940.63L2423.43,2940.63C2404.78,2940.63 2395.46,2931.71 2395.46,2913.87L2395.46,2798.32C2395.46,2780.48 2404.78,2771.56 2423.43,2771.56L3062.01,2771.56C3085.53,2771.56 3102.15,2765.48 3111.88,2753.31C3121.61,2741.15 3126.48,2724.53 3126.48,2703.44L3126.48,2653.57C3126.48,2608.16 3105.4,2585.46 3063.23,2585.46L2607.1,2585.46C2536.55,2585.46 2483.44,2567.41 2447.76,2531.33C2412.08,2495.24 2394.24,2443.55 2394.24,2376.25L2394.24,2287.45C2394.24,2228.26 2411.68,2180.42 2446.54,2143.93C2481.41,2107.43 2535.74,2089.19 2609.53,2089.19L3254.2,2089.19Z" style="fill:rgb(225,226,227);fill-rule:nonzero;"/>
                <g transform="matrix(1.95913,0,0,2.43268,-42.8977,-2632.61)">
                    <path d="M2157.27,2175.98L2157.27,1926.98C2157.27,1919.65 2161.82,1915.98 2170.93,1915.98L2231.77,1915.98C2240.88,1915.98 2245.43,1919.65 2245.43,1926.98L2245.43,2189.98C2245.43,2207.98 2242.95,2223.4 2237.98,2236.23C2233.01,2249.07 2224.84,2259.57 2213.46,2267.73C2202.07,2275.9 2186.86,2281.82 2167.82,2285.48C2148.78,2289.15 2125.4,2290.98 2097.67,2290.98L1923.83,2290.98C1895.68,2290.98 1872.19,2289.15 1853.36,2285.48C1834.53,2281.82 1819.42,2275.9 1808.04,2267.73C1796.65,2259.57 1788.48,2249.07 1783.51,2236.23C1778.55,2223.4 1776.06,2207.98 1776.06,2189.98L1776.06,2117.98C1776.06,2099.98 1778.55,2084.57 1783.51,2071.73C1788.48,2058.9 1796.65,2048.4 1808.04,2040.23C1819.42,2032.07 1834.53,2026.07 1853.36,2022.23C1872.19,2018.4 1895.68,2016.48 1923.83,2016.48L2091.6,2016.48C2099.96,2016.48 2106.74,2023.26 2106.74,2031.62C2106.74,2040.71 2106.74,2052.25 2106.74,2061.35C2106.74,2069.71 2099.96,2076.48 2091.6,2076.48C2049.23,2076.48 1932.52,2076.48 1932.52,2076.48C1919.27,2076.48 1908.31,2077.4 1899.61,2079.23C1890.92,2081.07 1883.99,2084.07 1878.81,2088.23C1873.64,2092.4 1870.02,2098.07 1867.95,2105.23C1865.88,2112.4 1864.85,2121.15 1864.85,2131.48L1864.85,2175.98C1864.85,2186.65 1865.88,2195.48 1867.95,2202.48C1870.02,2209.48 1873.64,2215.07 1878.81,2219.23C1883.99,2223.4 1890.92,2226.4 1899.61,2228.23C1908.31,2230.07 1919.27,2230.98 1932.52,2230.98L2088.97,2230.98C2102.63,2230.98 2113.81,2230.07 2122.5,2228.23C2131.19,2226.4 2138.12,2223.4 2143.3,2219.23C2148.47,2215.07 2152.1,2209.48 2154.16,2202.48C2156.23,2195.48 2157.27,2186.65 2157.27,2175.98Z" style="fill:rgb(225,226,227);fill-rule:nonzero;"/>
                </g>
            </g>
            <g transform="matrix(0.799048,0,0,0.799048,900.472,491.639)">
                <g transform="matrix(1,0,0,1,2000,500)">
                    <path d="M1949.59,1254.1C1980.79,1236.09 2019.22,1236.09 2050.41,1254.1C2174.97,1326.02 2496.2,1511.48 2620.76,1583.4C2651.95,1601.41 2671.17,1634.69 2671.17,1670.7C2671.17,1814.54 2671.17,2185.46 2671.17,2329.3C2671.17,2365.31 2651.95,2398.59 2620.76,2416.6C2496.2,2488.52 2174.97,2673.98 2050.41,2745.9C2019.22,2763.91 1980.79,2763.91 1949.59,2745.9C1825.03,2673.98 1503.8,2488.52 1379.24,2416.6C1348.05,2398.59 1328.83,2365.31 1328.83,2329.3C1328.83,2185.46 1328.83,1814.54 1328.83,1670.7C1328.83,1634.69 1348.05,1601.41 1379.24,1583.4C1503.8,1511.48 1825.03,1326.02 1949.59,1254.1ZM2403.01,2093.17C2409.2,2089.6 2416.83,2089.6 2423.01,2093.17C2429.2,2096.74 2433.01,2103.35 2433.01,2110.49C2433.01,2150.1 2433.01,2212.78 2433.01,2238.45C2433.01,2245.6 2429.2,2252.2 2423.01,2255.77C2364.63,2289.48 2068.39,2460.52 2010,2494.23C2003.81,2497.8 1996.19,2497.8 1990,2494.23C1956.57,2474.93 1848.94,2412.79 1815.52,2393.49C1809.33,2389.92 1805.52,2383.31 1805.52,2376.17C1805.52,2350.37 1805.52,2287.18 1805.52,2247.36C1805.52,2240.21 1809.33,2233.61 1815.52,2230.04C1821.7,2226.46 1829.33,2226.46 1835.52,2230.04C1880.11,2255.78 1961.68,2302.88 1990,2319.23C1996.19,2322.8 2003.81,2322.8 2010,2319.23C2014.98,2316.35 2020.21,2313.33 2021.54,2312.57C2021.71,2312.46 2021.94,2312.52 2022.04,2312.7C2022.04,2312.7 2022.04,2312.7 2022.04,2312.7C2022.14,2312.88 2022.37,2312.94 2022.54,2312.84C2033.24,2306.66 2310.19,2146.76 2403.01,2093.17ZM1751.79,1643.3C1757.98,1639.73 1765.6,1639.73 1771.79,1643.3C1794.14,1656.2 1848.86,1687.8 1883.35,1707.71C1889.54,1711.28 1893.35,1717.88 1893.35,1725.03C1893.35,1732.17 1889.54,1738.78 1883.35,1742.35C1837.9,1768.59 1754.05,1817 1727.11,1832.55C1721.81,1835.61 1718.54,1841.27 1718.54,1847.4L1718.54,1847.4C1718.53,1847.4 1718.52,1847.41 1718.52,1847.42C1718.52,1850.71 1718.52,2191.64 1718.52,2302.85C1718.52,2309.99 1714.7,2316.59 1708.52,2320.16C1702.33,2323.74 1694.7,2323.74 1688.52,2320.16C1654.04,2300.26 1599.33,2268.67 1576.99,2255.77C1570.8,2252.2 1566.99,2245.6 1566.99,2238.45C1566.99,2171.03 1566.99,1828.97 1566.99,1761.55C1566.99,1754.4 1570.8,1747.8 1576.99,1744.23C1610.46,1724.9 1718.32,1662.63 1751.79,1643.3ZM1990,1780.77C1996.19,1777.2 2003.81,1777.2 2010,1780.77C2043.48,1800.1 2151.38,1862.4 2184.86,1881.73C2191.04,1885.3 2194.86,1891.9 2194.86,1899.05L2194.86,2100.95C2194.86,2108.1 2191.04,2114.7 2184.86,2118.27C2151.38,2137.6 2043.48,2199.9 2010,2219.23C2003.81,2222.8 1996.19,2222.8 1990,2219.23C1956.52,2199.9 1848.62,2137.6 1815.14,2118.27C1808.96,2114.7 1805.14,2108.1 1805.14,2100.95L1805.14,1899.05C1805.14,1891.9 1808.96,1885.3 1815.14,1881.73C1848.62,1862.4 1956.52,1800.1 1990,1780.77ZM1878.79,1604.62C1872.6,1601.05 1868.79,1594.44 1868.79,1587.3C1868.79,1580.15 1872.6,1573.55 1878.79,1569.98C1913.19,1550.12 1967.71,1518.64 1990,1505.77C1996.19,1502.2 2003.81,1502.2 2010,1505.77C2068.39,1539.48 2364.63,1710.52 2423.01,1744.23C2429.2,1747.8 2433.01,1754.4 2433.01,1761.55L2433.01,1963.85C2433.01,1970.99 2429.2,1977.59 2423.01,1981.17C2400.67,1994.07 2345.95,2025.66 2311.46,2045.57C2305.27,2049.14 2297.65,2049.14 2291.46,2045.57C2285.27,2042 2281.46,2035.4 2281.46,2028.25C2281.46,1965.06 2281.46,1837.5 2281.46,1837.5C2281.46,1837.5 2281.44,1837.49 2281.42,1837.48C2281.34,1837.47 2281.28,1837.4 2281.27,1837.32C2281.26,1837.23 2281.32,1837.16 2281.39,1837.13L2281.43,1837.08C2281.37,1837.05 1976.81,1661.21 1878.79,1604.62Z" style="fill:rgb(225,226,227);"/>
                </g>
                <path d="M3949.59,1754.1C3980.79,1736.09 4019.22,1736.09 4050.41,1754.1C4174.97,1826.02 4496.2,2011.48 4620.76,2083.4C4651.95,2101.41 4671.17,2134.69 4671.17,2170.7L4671.17,2829.3C4671.17,2865.31 4651.95,2898.59 4620.76,2916.6C4496.2,2988.52 4174.97,3173.98 4050.41,3245.9C4019.22,3263.91 3980.79,3263.91 3949.59,3245.9C3825.03,3173.98 3503.8,2988.52 3379.24,2916.6C3348.05,2898.59 3328.83,2865.31 3328.83,2829.3C3328.83,2685.46 3328.83,2314.54 3328.83,2170.7C3328.83,2134.69 3348.05,2101.41 3379.24,2083.4C3503.8,2011.48 3825.03,1826.02 3949.59,1754.1ZM3949.59,1829.1C3980.79,1811.09 4019.22,1811.09 4050.41,1829.1C4164.54,1895 4441.67,2055 4555.81,2120.9C4587,2138.91 4606.22,2172.19 4606.22,2208.2L4606.22,2791.8C4606.22,2827.81 4587,2861.09 4555.81,2879.1C4441.67,2945 4164.54,3105 4050.41,3170.9C4019.22,3188.91 3980.79,3188.91 3949.59,3170.9C3835.46,3105 3558.33,2945 3444.19,2879.1C3413,2861.09 3393.78,2827.81 3393.78,2791.8L3393.78,2208.2C3393.78,2172.19 3413,2138.91 3444.19,2120.9C3558.33,2055 3835.46,1895 3949.59,1829.1Z" style="fill:rgb(225,226,227);"/>
            </g>
        </g>
    </g>
</svg>
