<?xml version="1.0" encoding="UTF-8" standalone="no"?>
<!DOCTYPE svg PUBLIC "-//W3C//DTD SVG 1.1//EN" "http://www.w3.org/Graphics/SVG/1.1/DTD/svg11.dtd">
<svg width="100%" height="100%" viewBox="0 0 2500 1000" version="1.1" xmlns="http://www.w3.org/2000/svg" xmlns:xlink="http://www.w3.org/1999/xlink" xml:space="preserve" xmlns:serif="http://www.serif.com/" style="fill-rule:evenodd;clip-rule:evenodd;stroke-linejoin:round;stroke-miterlimit:2;">
    <g transform="matrix(1.29529,0,0,1.29529,-369.116,-835.736)">
        <g transform="matrix(6.70115,0,0,6.70115,-276.585,299.056)">
            <g transform="matrix(1.47381,0,0,1.47381,-46.7818,-66.6546)">
                <path d="M101.86,139.55L101.85,136.96L104.09,135.66L106.34,136.95L106.34,139.54L104.1,140.84L101.86,139.55Z" style="fill:rgb(204,204,204);fill-rule:nonzero;"/>
            </g>
            <g transform="matrix(1.33235,0,0,1.33235,-30.7356,-47.5024)">
                <path d="M95.39,143.35L95.39,141.44L97.04,140.48L98.69,141.43L98.7,143.34L97.05,144.3L95.39,143.35Z" style="fill:rgb(3,90,177);fill-rule:nonzero;"/>
            </g>
            <path d="M113.39,137.03L115.9,135.57L115.89,131.87L112.68,130.03L109.95,131.62L109.6,84.07L153.61,58.24L195.02,81.75L191.94,83.54L191.95,86.59L153.65,64.85L115.35,87.33L115.67,131.74L154.29,153.67L192.59,131.18L192.28,87.42L195.16,89.07L198,87.42L198.34,134.45L154.34,160.28L113.39,137.03Z" style="fill:rgb(3,90,177);fill-rule:nonzero;"/>
            <g transform="matrix(1.47381,0,0,1.47381,-99.0284,-36.2049)">
                <path d="M205.98,78.51L205.99,81.1L203.75,82.4L201.5,81.11L201.5,78.52L203.74,77.22L205.98,78.51Z" style="fill:rgb(204,204,204);fill-rule:nonzero;"/>
            </g>
            <g transform="matrix(1.33235,0,0,1.33235,-71.492,-24.463)">
                <path d="M212.45,74.71L212.45,76.62L210.8,77.58L209.15,76.63L209.14,74.72L210.79,73.76L212.45,74.71Z" style="fill:rgb(3,90,177);fill-rule:nonzero;"/>
            </g>
            <path d="M182.94,99.51L179.46,101.53L178.56,102.05L177.66,101.53L173.3,99.02L172.4,98.5L172.4,97.46L172.39,92.43L172.39,91.39L173.29,90.87L176.83,88.82L175.49,88.04L168.72,84.19L168.55,84.09L153.7,75.66L124.73,92.66L124.91,118.3L128.94,115.96L135.25,119.58L135.27,126.86L130.72,129.5L154.18,142.82L183.15,125.82L182.94,99.51ZM154.09,126.21L139.39,117.77L139.35,100.82L154.01,92.31L168.71,100.75L168.75,117.7L154.09,126.21Z" style="fill:rgb(204,204,204);fill-rule:nonzero;"/>
        </g>
        <g transform="matrix(9.54479,0,0,9.54479,-2796.85,-2054.16)">
            <g transform="matrix(0.0808847,0,0,0.0808847,321.666,279.208)">
                <text x="1142.53px" y="729.407px" style="font-family:'ConthraxSb-Regular', 'Conthrax', sans-serif;font-weight:600;font-size:65px;fill:rgb(204,204,204);">ef<tspan x="1226.97px " y="729.407px ">f</tspan>or<tspan x="1356.38px " y="729.407px ">t</tspan>less cloud infrastructure</text>
            </g>
            <path d="M431.21,309.82C432.74,309.82 434.05,309.97 435.13,310.26C436.21,310.55 437.09,311.02 437.76,311.65C438.44,312.29 438.92,313.11 439.23,314.12C439.53,315.13 439.68,316.36 439.68,317.81L439.68,323.01C439.68,324.46 439.53,325.7 439.23,326.72C438.93,327.74 438.44,328.57 437.76,329.2C437.08,329.84 436.21,330.29 435.13,330.58C434.05,330.86 432.74,331 431.21,331L421.86,331C420.33,331 419.03,330.86 417.96,330.58C416.89,330.3 416.02,329.84 415.34,329.2C414.66,328.56 414.17,327.74 413.86,326.72C413.55,325.7 413.39,324.46 413.39,323.01L413.39,317.81C413.39,316.36 413.55,315.13 413.86,314.12C414.17,313.11 414.67,312.29 415.34,311.65C416.02,311.01 416.89,310.55 417.96,310.26C419.03,309.97 420.33,309.82 421.86,309.82L431.21,309.82ZM418.01,322.68C418.01,323.47 418.08,324.13 418.21,324.66C418.34,325.19 418.56,325.62 418.86,325.93C419.16,326.24 419.57,326.46 420.09,326.6C420.6,326.73 421.25,326.8 422.04,326.8L431.03,326.8C431.82,326.8 432.47,326.73 432.98,326.6C433.49,326.47 433.9,326.25 434.21,325.93C434.52,325.61 434.73,325.19 434.86,324.66C434.99,324.13 435.06,323.47 435.06,322.68L435.06,318.14C435.06,317.35 434.99,316.69 434.86,316.16C434.73,315.63 434.51,315.2 434.21,314.89C433.91,314.58 433.5,314.36 432.98,314.22C432.47,314.09 431.82,314.02 431.03,314.02L422.04,314.02C421.25,314.02 420.6,314.09 420.09,314.22C419.58,314.35 419.17,314.57 418.86,314.89C418.56,315.2 418.34,315.63 418.21,316.16C418.08,316.69 418.01,317.35 418.01,318.14L418.01,322.68Z" style="fill:rgb(204,204,204);fill-rule:nonzero;"/>
            <path d="M460.59,309.82C462.91,309.82 464.57,310.34 465.58,311.39C466.59,312.44 467.09,313.99 467.09,316.05L467.09,318.29C467.09,320.35 466.59,321.9 465.58,322.95C464.57,324 462.91,324.52 460.59,324.52L448.06,324.52L448.06,330.33C448.06,330.77 447.84,331 447.39,331L444.12,331C443.66,331 443.42,330.78 443.42,330.33L443.42,310.72C443.42,310.11 443.72,309.81 444.33,309.81L460.59,309.81L460.59,309.82ZM448.06,320.53L459.65,320.53C460.68,320.53 461.4,320.31 461.83,319.86C462.25,319.42 462.47,318.74 462.47,317.83L462.47,316.68C462.47,315.77 462.26,315.1 461.83,314.65C461.41,314.21 460.68,313.98 459.65,313.98L448.45,313.98C448.19,313.98 448.06,314.1 448.06,314.34L448.06,320.53Z" style="fill:rgb(204,204,204);fill-rule:nonzero;"/>
            <path d="M491.12,309.82C491.56,309.82 491.79,310.04 491.79,310.49L491.79,313.36C491.79,313.8 491.57,314.03 491.12,314.03L475.96,314.03C475.37,314.03 474.96,314.18 474.72,314.48C474.48,314.78 474.36,315.2 474.36,315.72L474.36,316.75C474.36,317.88 474.88,318.44 475.93,318.44L487.28,318.44C489.03,318.44 490.36,318.89 491.24,319.79C492.13,320.69 492.57,321.97 492.57,323.65L492.57,326.07C492.57,327.54 492.14,328.73 491.27,329.64C490.4,330.55 489.05,331 487.21,331L470.45,331C469.99,331 469.75,330.78 469.75,330.33L469.75,327.46C469.75,327.02 469.98,326.79 470.45,326.79L486.34,326.79C486.93,326.79 487.34,326.64 487.58,326.34C487.82,326.04 487.94,325.62 487.94,325.1L487.94,323.86C487.94,322.73 487.42,322.17 486.37,322.17L475.02,322.17C473.27,322.17 471.94,321.72 471.06,320.82C470.17,319.92 469.73,318.64 469.73,316.96L469.73,314.75C469.73,313.28 470.16,312.09 471.03,311.18C471.9,310.27 473.25,309.82 475.09,309.82L491.12,309.82Z" style="fill:rgb(204,204,204);fill-rule:nonzero;"/>
            <path d="M514.24,314.39L514.24,308.97C514.24,308.53 514.46,308.3 514.91,308.3L517.87,308.3C518.31,308.3 518.54,308.52 518.54,308.97L518.54,324.89C518.54,325.98 518.42,326.91 518.18,327.69C517.94,328.47 517.54,329.1 516.98,329.6C516.43,330.09 515.68,330.45 514.76,330.67C513.83,330.89 512.69,331 511.34,331L502.87,331C501.5,331 500.35,330.89 499.43,330.67C498.51,330.45 497.78,330.09 497.22,329.6C496.67,329.11 496.27,328.47 496.02,327.69C495.78,326.91 495.66,325.98 495.66,324.89L495.66,320.53C495.66,319.44 495.78,318.51 496.02,317.73C496.26,316.95 496.66,316.32 497.22,315.82C497.77,315.33 498.51,314.96 499.43,314.73C500.35,314.5 501.49,314.38 502.87,314.38L514.24,314.38L514.24,314.39ZM510.91,327.37C511.58,327.37 512.12,327.31 512.54,327.2C512.96,327.09 513.3,326.91 513.55,326.66C513.8,326.41 513.98,326.07 514.08,325.65C514.18,325.23 514.23,324.69 514.23,324.05L514.23,318.03L503.28,318.03C502.63,318.03 502.1,318.09 501.68,318.2C501.26,318.31 500.92,318.49 500.67,318.75C500.42,319 500.24,319.34 500.14,319.78C500.04,320.21 499.99,320.74 499.99,321.37L499.99,324.06C499.99,324.71 500.04,325.24 500.14,325.66C500.24,326.08 500.42,326.42 500.67,326.67C500.92,326.92 501.26,327.1 501.68,327.21C502.1,327.32 502.64,327.38 503.28,327.38L510.91,327.38L510.91,327.37Z" style="fill:rgb(3,90,177);fill-rule:nonzero;"/>
        </g>
    </g>
</svg>
