<?xml version="1.0" encoding="UTF-8" standalone="no"?>
<!DOCTYPE svg PUBLIC "-//W3C//DTD SVG 1.1//EN" "http://www.w3.org/Graphics/SVG/1.1/DTD/svg11.dtd">
<svg width="100%" height="100%" viewBox="0 0 2500 250" version="1.1" xmlns="http://www.w3.org/2000/svg" xmlns:xlink="http://www.w3.org/1999/xlink" xml:space="preserve" xmlns:serif="http://www.serif.com/" style="fill-rule:evenodd;clip-rule:evenodd;stroke-linejoin:round;stroke-miterlimit:2;">
    <g transform="matrix(0.8,0,0,0.8,1250.03,-114.987)">
        <g transform="matrix(1,0,0,1,850,0)">
            <path d="M150,265L400,235L650,265L650,335L649.731,335L400,364.968L150.269,335L150,335L150,265ZM160.225,274.614L400.376,247.414L640.528,274.614L640.528,325.414L400.376,352.586L160.225,325.414L160.225,274.614Z" style="fill:rgb(3,90,177);"/>
        </g>
        <g transform="matrix(2.58876,0,0,3.87855,554.859,-945.439)">
            <text x="183.54px" y="325.106px" style="font-family:'ConthraxSb-Regular', 'Conthrax', sans-serif;font-weight:600;font-size:11.28px;fill:rgb(47,47,47);">Check out our w<tspan x="305.217px " y="325.106px ">e</tspan>bsite!</text>
        </g>
    </g>
    <g transform="matrix(1.0681,0,0,1,-19.2926,-3.10107)">
        <text x="63.221px" y="139.061px" style="font-family:'ConthraxSb-Regular', 'Conthrax', sans-serif;font-weight:600;font-size:45px;fill:rgb(47,47,47);">a unique and ef<tspan x="522.356px " y="139.061px ">f</tspan>or<tspan x="611.951px " y="139.061px ">t</tspan>less w<tspan x="819.176px 853.511px " y="139.061px 139.061px ">ay</tspan> of managing cloud infrastructure</text>
    </g>
</svg>
